<svg width="21" height="21" viewBox="0 0 21 21" fill="none" xmlns="http://www.w3.org/2000/svg">
<path d="M5.99191 10.3821C6.0971 10.5771 6.29714 10.6987 6.51471 10.6987H9.90258V17.3881C9.90258 17.7259 10.1704 18 10.5003 18C10.8302 18 11.098 17.7259 11.098 17.3881V10.6987H14.4859C14.7043 10.6987 14.9043 10.5771 15.0087 10.3821C15.1147 10.1871 15.1075 9.94887 14.992 9.7604L11.0064 3.28556C10.8964 3.1077 10.7059 3 10.5003 3C10.2947 3 10.1042 3.1077 9.99424 3.28556L6.00864 9.7604C5.94807 9.85994 5.91699 9.97335 5.91699 10.0868C5.91699 10.1879 5.94249 10.2899 5.99191 10.3821Z" fill="#11CABE"/>
</svg>
