<svg width="20" height="21" viewBox="0 0 20 21" fill="none" xmlns="http://www.w3.org/2000/svg">
<path d="M14.5087 10.6179C14.4035 10.4229 14.2035 10.3013 13.9859 10.3013H10.5981V3.61191C10.5981 3.27414 10.3303 3 10.0003 3C9.67041 3 9.40263 3.27414 9.40263 3.61191V10.3013H6.01475C5.79639 10.3013 5.59635 10.4229 5.49195 10.6179C5.38595 10.8129 5.39313 11.0511 5.50869 11.2396L9.49428 17.7144C9.60426 17.8923 9.79473 18 10.0003 18C10.206 18 10.3964 17.8923 10.5064 17.7144L14.492 11.2396C14.5526 11.1401 14.5837 11.0267 14.5837 10.9132C14.5837 10.8121 14.5582 10.7101 14.5087 10.6179" fill="#FA2256"/>
</svg>
