<svg width="111" height="111" viewBox="0 0 111 111" fill="none" xmlns="http://www.w3.org/2000/svg">
<rect width="111" height="111" rx="12" fill="#2F3241" fill-opacity="0.5"/>
<path d="M65.2568 54.0412C68.1944 54.0412 70.5775 51.6599 70.5775 48.7223C70.5775 45.7847 68.1944 43.4033 65.2568 43.4033" stroke="#BD47FB" stroke-width="1.5" stroke-linecap="round" stroke-linejoin="round"/>
<path d="M67.7031 59.8213C68.5804 59.8818 69.4526 60.0062 70.3113 60.1994C71.5045 60.433 72.9397 60.9221 73.4506 61.9926C73.7767 62.6782 73.7767 63.4765 73.4506 64.1638C72.9414 65.2344 71.5045 65.7217 70.3113 65.9671" stroke="#BD47FB" stroke-width="1.5" stroke-linecap="round" stroke-linejoin="round"/>
<path d="M44.5316 54.0412C41.594 54.0412 39.2109 51.6599 39.2109 48.7223C39.2109 45.7847 41.594 43.4033 44.5316 43.4033" stroke="#BD47FB" stroke-width="1.5" stroke-linecap="round" stroke-linejoin="round"/>
<path d="M42.0854 59.8213C41.2081 59.8818 40.3359 60.0062 39.4771 60.1994C38.2839 60.433 36.8487 60.9221 36.3395 61.9926C36.0118 62.6782 36.0118 63.4765 36.3395 64.1638C36.8471 65.2344 38.2839 65.7217 39.4771 65.9671" stroke="#BD47FB" stroke-width="1.5" stroke-linecap="round" stroke-linejoin="round"/>
<path fill-rule="evenodd" clip-rule="evenodd" d="M54.8855 60.9668C60.8381 60.9668 65.9234 61.8676 65.9234 65.4724C65.9234 69.0755 60.8717 70.0099 54.8855 70.0099C48.9313 70.0099 43.8477 69.1091 43.8477 65.5043C43.8477 61.8995 48.8994 60.9668 54.8855 60.9668Z" stroke="#BD47FB" stroke-width="1.5" stroke-linecap="round" stroke-linejoin="round"/>
<path fill-rule="evenodd" clip-rule="evenodd" d="M54.886 55.8254C50.9602 55.8254 47.8125 52.6777 47.8125 48.7502C47.8125 44.8244 50.9602 41.6768 54.886 41.6768C58.8117 41.6768 61.9594 44.8244 61.9594 48.7502C61.9594 52.6777 58.8117 55.8254 54.886 55.8254Z" stroke="#BD47FB" stroke-width="1.5" stroke-linecap="round" stroke-linejoin="round"/>
</svg>
