<svg width="111" height="111" viewBox="0 0 111 111" fill="none" xmlns="http://www.w3.org/2000/svg">
<rect width="111" height="111" rx="12" fill="#2F3241" fill-opacity="0.5"/>
<path fill-rule="evenodd" clip-rule="evenodd" d="M67.5862 43.3933C68.3873 43.6738 68.9227 44.4291 68.9227 45.278V57.6951C68.9227 61.1656 67.6613 64.4785 65.4338 67.0451C64.3137 68.3376 62.8965 69.3441 61.3913 70.1581L54.8683 73.6818L48.3343 70.1563C46.8273 69.3423 45.4083 68.3376 44.2863 67.0433C42.057 64.4766 40.792 61.162 40.792 57.6878V45.278C40.792 44.4291 41.3273 43.6738 42.1285 43.3933L54.1955 39.1528C54.6245 39.0025 55.092 39.0025 55.5192 39.1528L67.5862 43.3933Z" stroke="#11CABE" stroke-width="1.5" stroke-linecap="round" stroke-linejoin="round"/>
<path d="M50.0918 55.8487L53.5605 59.3192L60.7068 52.1729" stroke="#11CABE" stroke-width="1.5" stroke-linecap="round" stroke-linejoin="round"/>
</svg>
