<svg width="93" height="93" viewBox="0 0 93 93" fill="none" xmlns="http://www.w3.org/2000/svg">
<path d="M66.6299 88.417C59.5209 91.831 51.6604 93.3808 43.7876 92.9208C35.9147 92.4608 28.2883 90.006 21.6252 85.7874C14.9622 81.5687 9.48163 75.7247 5.69878 68.8049C1.91593 61.8852 -0.0448596 54.117 0.000778653 46.2309C0.0464169 38.3448 2.09699 30.5998 5.95967 23.7243C9.82235 16.8488 15.3702 11.0687 22.0816 6.92737C28.793 2.78609 36.4474 0.419764 44.325 0.0508939C52.2026 -0.317976 60.0447 1.32273 67.1137 4.81875L57.0552 25.1572C53.4355 23.367 49.42 22.5269 45.3863 22.7158C41.3526 22.9047 37.4332 24.1164 33.9966 26.2369C30.56 28.3574 27.7193 31.3171 25.7414 34.8377C23.7635 38.3583 22.7135 42.3241 22.6901 46.3622C22.6668 50.4003 23.6708 54.378 25.6078 57.9212C27.5448 61.4645 30.3511 64.4569 33.7629 66.617C37.1747 68.7772 41.0798 70.0342 45.1111 70.2697C49.1424 70.5053 53.1673 69.7117 56.8075 67.9636L66.6299 88.417Z" fill="url(#paint0_linear_222_752)"/>
<ellipse cx="45.9466" cy="45.9464" rx="16.0536" ry="16.0536" fill="#30E0A1"/>
<defs>
<linearGradient id="paint0_linear_222_752" x1="95.17" y1="24.4322" x2="-3.32437" y2="32.0845" gradientUnits="userSpaceOnUse">
<stop stop-color="#246CF9"/>
<stop offset="0.0001" stop-color="#1E68F6"/>
<stop offset="1" stop-color="#0047D0"/>
</linearGradient>
</defs>
</svg>
