<svg width="91" height="91" viewBox="0 0 91 91" fill="none" xmlns="http://www.w3.org/2000/svg">
<g filter="url(#filter0_b_2355_558)">
<circle cx="45.5" cy="45.5" r="45.5" fill="#34384C"/>
</g>
<g filter="url(#filter1_d_2355_558)">
<path d="M53.1095 41.3208V37.3846C53.1095 32.7774 49.3732 29.0411 44.766 29.0411C40.1589 29.0209 36.4079 32.7389 36.3877 37.3479V37.3846V41.3208" stroke="#11CABE" stroke-width="2" stroke-linecap="round" stroke-linejoin="round"/>
<path fill-rule="evenodd" clip-rule="evenodd" d="M51.7525 62.9576H37.744C33.905 62.9576 30.792 59.8464 30.792 56.0056V48.1424C30.792 44.3016 33.905 41.1904 37.744 41.1904H51.7525C55.5915 41.1904 58.7045 44.3016 58.7045 48.1424V56.0056C58.7045 59.8464 55.5915 62.9576 51.7525 62.9576Z" stroke="#11CABE" stroke-width="2" stroke-linecap="round" stroke-linejoin="round"/>
<path d="M44.7487 50.0381V54.1099" stroke="#11CABE" stroke-width="2" stroke-linecap="round" stroke-linejoin="round"/>
</g>
<defs>
<filter id="filter0_b_2355_558" x="-14" y="-14" width="119" height="119" filterUnits="userSpaceOnUse" color-interpolation-filters="sRGB">
<feFlood flood-opacity="0" result="BackgroundImageFix"/>
<feGaussianBlur in="BackgroundImageFix" stdDeviation="7"/>
<feComposite in2="SourceAlpha" operator="in" result="effect1_backgroundBlur_2355_558"/>
<feBlend mode="normal" in="SourceGraphic" in2="effect1_backgroundBlur_2355_558" result="shape"/>
</filter>
<filter id="filter1_d_2355_558" x="19" y="20" width="52" height="52" filterUnits="userSpaceOnUse" color-interpolation-filters="sRGB">
<feFlood flood-opacity="0" result="BackgroundImageFix"/>
<feColorMatrix in="SourceAlpha" type="matrix" values="0 0 0 0 0 0 0 0 0 0 0 0 0 0 0 0 0 0 127 0" result="hardAlpha"/>
<feOffset/>
<feGaussianBlur stdDeviation="2"/>
<feColorMatrix type="matrix" values="0 0 0 0 0.0679514 0 0 0 0 0.790382 0 0 0 0 0.747036 0 0 0 1 0"/>
<feBlend mode="normal" in2="BackgroundImageFix" result="effect1_dropShadow_2355_558"/>
<feBlend mode="normal" in="SourceGraphic" in2="effect1_dropShadow_2355_558" result="shape"/>
</filter>
</defs>
</svg>
